<mxfile host="Electron" agent="Mozilla/5.0 (X11; Linux x86_64) AppleWebKit/537.36 (KHTML, like Gecko) draw.io/24.7.8 Chrome/128.0.6613.36 Electron/32.0.1 Safari/537.36" version="24.7.8">
  <diagram name="Page-1" id="uohLLlnRNg8gCX-hvM3u">
    <mxGraphModel dx="2216" dy="803" grid="1" gridSize="10" guides="1" tooltips="1" connect="1" arrows="1" fold="1" page="1" pageScale="1" pageWidth="850" pageHeight="1100" math="0" shadow="0">
      <root>
        <mxCell id="0" />
        <mxCell id="1" parent="0" />
        <mxCell id="RfcCCVN-phv9E4qZaBOK-1" value="Server" style="swimlane;whiteSpace=wrap;html=1;labelBackgroundColor=none;labelBorderColor=none;rounded=0;" parent="1" vertex="1">
          <mxGeometry x="170" y="140" width="940" height="850" as="geometry" />
        </mxCell>
        <mxCell id="RfcCCVN-phv9E4qZaBOK-5" value="Pure data" style="swimlane;whiteSpace=wrap;html=1;labelBackgroundColor=none;" parent="RfcCCVN-phv9E4qZaBOK-1" vertex="1">
          <mxGeometry x="150" y="470" width="440" height="370" as="geometry">
            <mxRectangle x="70" y="60" width="90" height="30" as="alternateBounds" />
          </mxGeometry>
        </mxCell>
        <mxCell id="RfcCCVN-phv9E4qZaBOK-10" style="edgeStyle=orthogonalEdgeStyle;rounded=0;orthogonalLoop=1;jettySize=auto;html=1;entryX=0.5;entryY=0;entryDx=0;entryDy=0;" parent="RfcCCVN-phv9E4qZaBOK-5" source="RfcCCVN-phv9E4qZaBOK-6" target="RfcCCVN-phv9E4qZaBOK-9" edge="1">
          <mxGeometry relative="1" as="geometry" />
        </mxCell>
        <mxCell id="RfcCCVN-phv9E4qZaBOK-6" value="Data sonification" style="shape=process;whiteSpace=wrap;html=1;backgroundOutline=1;" parent="RfcCCVN-phv9E4qZaBOK-5" vertex="1">
          <mxGeometry x="190" y="140" width="160" height="60" as="geometry" />
        </mxCell>
        <mxCell id="RfcCCVN-phv9E4qZaBOK-8" style="edgeStyle=orthogonalEdgeStyle;rounded=0;orthogonalLoop=1;jettySize=auto;html=1;" parent="RfcCCVN-phv9E4qZaBOK-5" source="RfcCCVN-phv9E4qZaBOK-7" target="RfcCCVN-phv9E4qZaBOK-6" edge="1">
          <mxGeometry relative="1" as="geometry" />
        </mxCell>
        <mxCell id="RfcCCVN-phv9E4qZaBOK-7" value="&lt;span style=&quot;color: rgb(0, 0, 0); font-family: Helvetica; font-size: 12px; font-style: normal; font-variant-ligatures: normal; font-variant-caps: normal; font-weight: 400; letter-spacing: normal; orphans: 2; text-align: center; text-indent: 0px; text-transform: none; widows: 2; word-spacing: 0px; -webkit-text-stroke-width: 0px; white-space: normal; text-decoration-thickness: initial; text-decoration-style: initial; text-decoration-color: initial; float: none; display: inline !important;&quot;&gt;TCP socket listenner&lt;/span&gt;" style="rounded=1;whiteSpace=wrap;html=1;fillColor=#dae8fc;strokeColor=#6c8ebf;labelBackgroundColor=none;" parent="RfcCCVN-phv9E4qZaBOK-5" vertex="1">
          <mxGeometry y="70" width="120" height="60" as="geometry" />
        </mxCell>
        <mxCell id="RfcCCVN-phv9E4qZaBOK-9" value="Output (DAC)" style="rounded=1;whiteSpace=wrap;html=1;" parent="RfcCCVN-phv9E4qZaBOK-5" vertex="1">
          <mxGeometry x="190" y="260" width="160" height="60" as="geometry" />
        </mxCell>
        <mxCell id="RfcCCVN-phv9E4qZaBOK-16" style="edgeStyle=orthogonalEdgeStyle;rounded=0;orthogonalLoop=1;jettySize=auto;html=1;" parent="RfcCCVN-phv9E4qZaBOK-1" source="RfcCCVN-phv9E4qZaBOK-11" target="RfcCCVN-phv9E4qZaBOK-14" edge="1">
          <mxGeometry relative="1" as="geometry" />
        </mxCell>
        <mxCell id="RfcCCVN-phv9E4qZaBOK-11" value="Kernel sound output (ALSA)" style="rounded=1;whiteSpace=wrap;html=1;" parent="RfcCCVN-phv9E4qZaBOK-1" vertex="1">
          <mxGeometry x="740" y="730" width="120" height="60" as="geometry" />
        </mxCell>
        <mxCell id="RfcCCVN-phv9E4qZaBOK-12" style="edgeStyle=orthogonalEdgeStyle;rounded=0;orthogonalLoop=1;jettySize=auto;html=1;" parent="RfcCCVN-phv9E4qZaBOK-1" source="RfcCCVN-phv9E4qZaBOK-9" target="RfcCCVN-phv9E4qZaBOK-11" edge="1">
          <mxGeometry relative="1" as="geometry" />
        </mxCell>
        <mxCell id="RfcCCVN-phv9E4qZaBOK-14" value="Speakers" style="whiteSpace=wrap;html=1;aspect=fixed;" parent="RfcCCVN-phv9E4qZaBOK-1" vertex="1">
          <mxGeometry x="760" y="540" width="80" height="80" as="geometry" />
        </mxCell>
        <mxCell id="RfcCCVN-phv9E4qZaBOK-23" value="Python software" style="swimlane;whiteSpace=wrap;html=1;" parent="RfcCCVN-phv9E4qZaBOK-1" vertex="1">
          <mxGeometry x="40" y="70" width="860" height="310" as="geometry">
            <mxRectangle x="40" y="70" width="130" height="30" as="alternateBounds" />
          </mxGeometry>
        </mxCell>
        <mxCell id="TdiOMRewL-0ZkkPGsHOe-12" style="edgeStyle=orthogonalEdgeStyle;rounded=0;orthogonalLoop=1;jettySize=auto;html=1;entryX=0;entryY=0.5;entryDx=0;entryDy=0;" edge="1" parent="RfcCCVN-phv9E4qZaBOK-23" source="TdiOMRewL-0ZkkPGsHOe-2" target="TdiOMRewL-0ZkkPGsHOe-11">
          <mxGeometry relative="1" as="geometry" />
        </mxCell>
        <mxCell id="TdiOMRewL-0ZkkPGsHOe-2" value="IOP receiver" style="rounded=1;whiteSpace=wrap;html=1;fillColor=#dae8fc;strokeColor=#6c8ebf;" vertex="1" parent="RfcCCVN-phv9E4qZaBOK-23">
          <mxGeometry x="130" y="150" width="120" height="60" as="geometry" />
        </mxCell>
        <mxCell id="TdiOMRewL-0ZkkPGsHOe-26" style="edgeStyle=orthogonalEdgeStyle;rounded=0;orthogonalLoop=1;jettySize=auto;html=1;entryX=0.5;entryY=0;entryDx=0;entryDy=0;" edge="1" parent="RfcCCVN-phv9E4qZaBOK-23" source="TdiOMRewL-0ZkkPGsHOe-11" target="TdiOMRewL-0ZkkPGsHOe-25">
          <mxGeometry relative="1" as="geometry" />
        </mxCell>
        <mxCell id="TdiOMRewL-0ZkkPGsHOe-11" value="IOP server (central unit)" style="rounded=0;whiteSpace=wrap;html=1;shape=process;backgroundOutline=1;" vertex="1" parent="RfcCCVN-phv9E4qZaBOK-23">
          <mxGeometry x="410" y="150" width="120" height="60" as="geometry" />
        </mxCell>
        <mxCell id="TdiOMRewL-0ZkkPGsHOe-21" style="edgeStyle=orthogonalEdgeStyle;rounded=0;orthogonalLoop=1;jettySize=auto;html=1;entryX=0.25;entryY=0;entryDx=0;entryDy=0;startArrow=classic;startFill=1;" edge="1" parent="RfcCCVN-phv9E4qZaBOK-23" source="TdiOMRewL-0ZkkPGsHOe-13" target="TdiOMRewL-0ZkkPGsHOe-11">
          <mxGeometry relative="1" as="geometry">
            <Array as="points">
              <mxPoint x="300" y="130" />
              <mxPoint x="440" y="130" />
            </Array>
          </mxGeometry>
        </mxCell>
        <mxCell id="TdiOMRewL-0ZkkPGsHOe-13" value="IOP module (software abstraction of standalone module)" style="rounded=0;whiteSpace=wrap;html=1;fillColor=#e1d5e7;strokeColor=#9673a6;" vertex="1" parent="RfcCCVN-phv9E4qZaBOK-23">
          <mxGeometry x="225" y="40" width="150" height="60" as="geometry" />
        </mxCell>
        <mxCell id="TdiOMRewL-0ZkkPGsHOe-22" style="edgeStyle=orthogonalEdgeStyle;rounded=0;orthogonalLoop=1;jettySize=auto;html=1;entryX=0.5;entryY=0;entryDx=0;entryDy=0;startArrow=classic;startFill=1;" edge="1" parent="RfcCCVN-phv9E4qZaBOK-23" source="TdiOMRewL-0ZkkPGsHOe-20" target="TdiOMRewL-0ZkkPGsHOe-11">
          <mxGeometry relative="1" as="geometry" />
        </mxCell>
        <mxCell id="TdiOMRewL-0ZkkPGsHOe-20" value="IOP module (software abstraction of standalone module)" style="rounded=0;whiteSpace=wrap;html=1;fillColor=#e1d5e7;strokeColor=#9673a6;" vertex="1" parent="RfcCCVN-phv9E4qZaBOK-23">
          <mxGeometry x="395" y="40" width="150" height="60" as="geometry" />
        </mxCell>
        <mxCell id="TdiOMRewL-0ZkkPGsHOe-23" style="edgeStyle=orthogonalEdgeStyle;rounded=0;orthogonalLoop=1;jettySize=auto;html=1;entryX=0.75;entryY=0;entryDx=0;entryDy=0;startArrow=classic;startFill=1;" edge="1" parent="RfcCCVN-phv9E4qZaBOK-23" source="TdiOMRewL-0ZkkPGsHOe-19" target="TdiOMRewL-0ZkkPGsHOe-11">
          <mxGeometry relative="1" as="geometry">
            <Array as="points">
              <mxPoint x="640" y="130" />
              <mxPoint x="500" y="130" />
            </Array>
          </mxGeometry>
        </mxCell>
        <mxCell id="TdiOMRewL-0ZkkPGsHOe-19" value="IOP module (software abstraction of standalone module)" style="rounded=0;whiteSpace=wrap;html=1;fillColor=#e1d5e7;strokeColor=#9673a6;" vertex="1" parent="RfcCCVN-phv9E4qZaBOK-23">
          <mxGeometry x="565" y="40" width="150" height="60" as="geometry" />
        </mxCell>
        <mxCell id="TdiOMRewL-0ZkkPGsHOe-25" value="IOP sender" style="rounded=1;whiteSpace=wrap;html=1;fillColor=#dae8fc;strokeColor=#6c8ebf;" vertex="1" parent="RfcCCVN-phv9E4qZaBOK-23">
          <mxGeometry x="650" y="220" width="120" height="60" as="geometry" />
        </mxCell>
        <mxCell id="TdiOMRewL-0ZkkPGsHOe-28" style="edgeStyle=orthogonalEdgeStyle;rounded=0;orthogonalLoop=1;jettySize=auto;html=1;entryX=0.5;entryY=1;entryDx=0;entryDy=0;startArrow=classic;startFill=1;endArrow=none;endFill=0;strokeWidth=3;fillColor=#dae8fc;strokeColor=#6c8ebf;" edge="1" parent="RfcCCVN-phv9E4qZaBOK-1" source="RfcCCVN-phv9E4qZaBOK-7" target="TdiOMRewL-0ZkkPGsHOe-25">
          <mxGeometry relative="1" as="geometry">
            <Array as="points">
              <mxPoint x="80" y="570" />
              <mxPoint x="80" y="430" />
              <mxPoint x="750" y="430" />
            </Array>
          </mxGeometry>
        </mxCell>
        <mxCell id="TdiOMRewL-0ZkkPGsHOe-29" value="Formatted message with float values" style="edgeLabel;html=1;align=left;verticalAlign=middle;resizable=0;points=[];labelPosition=right;verticalLabelPosition=middle;" vertex="1" connectable="0" parent="TdiOMRewL-0ZkkPGsHOe-28">
          <mxGeometry x="0.6139" y="-3" relative="1" as="geometry">
            <mxPoint x="-345" y="-3" as="offset" />
          </mxGeometry>
        </mxCell>
        <mxCell id="TdiOMRewL-0ZkkPGsHOe-1" value="&lt;span style=&quot;text-align: center;&quot;&gt;Raw data&lt;/span&gt;" style="edgeStyle=orthogonalEdgeStyle;rounded=0;orthogonalLoop=1;jettySize=auto;html=1;entryX=0;entryY=0.25;entryDx=0;entryDy=0;fillColor=#dae8fc;strokeColor=#6c8ebf;strokeWidth=3;dashed=1;labelPosition=right;verticalLabelPosition=middle;align=left;verticalAlign=middle;" edge="1" parent="1" source="RfcCCVN-phv9E4qZaBOK-20" target="TdiOMRewL-0ZkkPGsHOe-2">
          <mxGeometry x="-0.5955" relative="1" as="geometry">
            <mxPoint x="220" y="280" as="targetPoint" />
            <Array as="points">
              <mxPoint x="290" y="280" />
              <mxPoint x="290" y="375" />
            </Array>
            <mxPoint as="offset" />
          </mxGeometry>
        </mxCell>
        <mxCell id="RfcCCVN-phv9E4qZaBOK-20" value="IoP Standalone module" style="rounded=0;whiteSpace=wrap;html=1;fillColor=#e1d5e7;strokeColor=#9673a6;" parent="1" vertex="1">
          <mxGeometry x="-130" y="250" width="120" height="60" as="geometry" />
        </mxCell>
        <mxCell id="TdiOMRewL-0ZkkPGsHOe-5" value="&lt;span style=&quot;color: rgb(0, 0, 0); font-family: Helvetica; font-size: 11px; font-style: normal; font-variant-ligatures: normal; font-variant-caps: normal; font-weight: 400; letter-spacing: normal; orphans: 2; text-align: center; text-indent: 0px; text-transform: none; widows: 2; word-spacing: 0px; -webkit-text-stroke-width: 0px; white-space: nowrap; background-color: rgb(255, 255, 255); text-decoration-thickness: initial; text-decoration-style: initial; text-decoration-color: initial; display: inline !important; float: none;&quot;&gt;Raw data&lt;/span&gt;" style="edgeStyle=orthogonalEdgeStyle;rounded=0;orthogonalLoop=1;jettySize=auto;html=1;entryX=0;entryY=0.5;entryDx=0;entryDy=0;fillColor=#dae8fc;strokeColor=#6c8ebf;strokeWidth=3;dashed=1;labelPosition=right;verticalLabelPosition=middle;align=left;verticalAlign=middle;" edge="1" parent="1" source="RfcCCVN-phv9E4qZaBOK-21" target="TdiOMRewL-0ZkkPGsHOe-2">
          <mxGeometry x="-0.4857" relative="1" as="geometry">
            <mxPoint as="offset" />
          </mxGeometry>
        </mxCell>
        <mxCell id="RfcCCVN-phv9E4qZaBOK-21" value="IoP Standalone module" style="rounded=0;whiteSpace=wrap;html=1;fillColor=#e1d5e7;strokeColor=#9673a6;" parent="1" vertex="1">
          <mxGeometry x="-130" y="360" width="120" height="60" as="geometry" />
        </mxCell>
        <mxCell id="TdiOMRewL-0ZkkPGsHOe-6" value="&lt;span style=&quot;color: rgb(0, 0, 0); font-family: Helvetica; font-size: 11px; font-style: normal; font-variant-ligatures: normal; font-variant-caps: normal; font-weight: 400; letter-spacing: normal; orphans: 2; text-align: center; text-indent: 0px; text-transform: none; widows: 2; word-spacing: 0px; -webkit-text-stroke-width: 0px; white-space: nowrap; background-color: rgb(255, 255, 255); text-decoration-thickness: initial; text-decoration-style: initial; text-decoration-color: initial; display: inline !important; float: none;&quot;&gt;Raw data&lt;/span&gt;" style="edgeStyle=orthogonalEdgeStyle;rounded=0;orthogonalLoop=1;jettySize=auto;html=1;entryX=0;entryY=0.75;entryDx=0;entryDy=0;fillColor=#dae8fc;strokeColor=#6c8ebf;strokeWidth=3;dashed=1;labelPosition=right;verticalLabelPosition=middle;align=left;verticalAlign=middle;" edge="1" parent="1" source="RfcCCVN-phv9E4qZaBOK-22" target="TdiOMRewL-0ZkkPGsHOe-2">
          <mxGeometry x="-0.5955" relative="1" as="geometry">
            <mxPoint x="220" y="500" as="targetPoint" />
            <Array as="points">
              <mxPoint x="290" y="500" />
              <mxPoint x="290" y="405" />
            </Array>
            <mxPoint as="offset" />
          </mxGeometry>
        </mxCell>
        <mxCell id="RfcCCVN-phv9E4qZaBOK-22" value="&lt;span style=&quot;color: rgb(0, 0, 0); font-family: Helvetica; font-size: 12px; font-style: normal; font-variant-ligatures: normal; font-variant-caps: normal; font-weight: 400; letter-spacing: normal; orphans: 2; text-align: center; text-indent: 0px; text-transform: none; widows: 2; word-spacing: 0px; -webkit-text-stroke-width: 0px; white-space: normal; text-decoration-thickness: initial; text-decoration-style: initial; text-decoration-color: initial; float: none; display: inline !important;&quot;&gt;IoP Standalone module&lt;/span&gt;" style="rounded=0;whiteSpace=wrap;html=1;fillColor=#e1d5e7;strokeColor=#9673a6;labelBackgroundColor=none;" parent="1" vertex="1">
          <mxGeometry x="-130" y="470" width="120" height="60" as="geometry" />
        </mxCell>
        <mxCell id="TdiOMRewL-0ZkkPGsHOe-7" value="" style="sketch=0;pointerEvents=1;shadow=0;dashed=0;html=1;strokeColor=none;fillColor=#434445;aspect=fixed;labelPosition=center;verticalLabelPosition=bottom;verticalAlign=top;align=center;outlineConnect=0;shape=mxgraph.vvd.wi_fi;" vertex="1" parent="1">
          <mxGeometry y="220" width="50" height="50" as="geometry" />
        </mxCell>
        <mxCell id="TdiOMRewL-0ZkkPGsHOe-8" value="" style="sketch=0;pointerEvents=1;shadow=0;dashed=0;html=1;strokeColor=none;fillColor=#434445;aspect=fixed;labelPosition=center;verticalLabelPosition=bottom;verticalAlign=top;align=center;outlineConnect=0;shape=mxgraph.vvd.wi_fi;" vertex="1" parent="1">
          <mxGeometry y="330" width="50" height="50" as="geometry" />
        </mxCell>
        <mxCell id="TdiOMRewL-0ZkkPGsHOe-9" value="" style="sketch=0;pointerEvents=1;shadow=0;dashed=0;html=1;strokeColor=none;fillColor=#434445;aspect=fixed;labelPosition=center;verticalLabelPosition=bottom;verticalAlign=top;align=center;outlineConnect=0;shape=mxgraph.vvd.wi_fi;" vertex="1" parent="1">
          <mxGeometry y="440" width="50" height="50" as="geometry" />
        </mxCell>
        <mxCell id="TdiOMRewL-0ZkkPGsHOe-30" value="Legend" style="swimlane;whiteSpace=wrap;html=1;fillColor=#d5e8d4;strokeColor=#82b366;" vertex="1" parent="1">
          <mxGeometry x="-130" y="620" width="260" height="340" as="geometry" />
        </mxCell>
        <mxCell id="TdiOMRewL-0ZkkPGsHOe-31" value="Wired TCP socket" style="endArrow=classic;html=1;rounded=0;strokeWidth=3;fillColor=#dae8fc;strokeColor=#6c8ebf;labelPosition=right;verticalLabelPosition=middle;align=left;verticalAlign=middle;" edge="1" parent="TdiOMRewL-0ZkkPGsHOe-30">
          <mxGeometry x="1" y="10" width="50" height="50" relative="1" as="geometry">
            <mxPoint x="20" y="60" as="sourcePoint" />
            <mxPoint x="90" y="60" as="targetPoint" />
            <mxPoint x="10" y="10" as="offset" />
          </mxGeometry>
        </mxCell>
        <mxCell id="TdiOMRewL-0ZkkPGsHOe-34" value="Wireless TCP socket" style="endArrow=classic;html=1;rounded=0;strokeWidth=3;fillColor=#dae8fc;strokeColor=#6c8ebf;labelPosition=right;verticalLabelPosition=middle;align=left;verticalAlign=middle;dashed=1;" edge="1" parent="TdiOMRewL-0ZkkPGsHOe-30">
          <mxGeometry x="1" y="10" width="50" height="50" relative="1" as="geometry">
            <mxPoint x="20" y="99.58000000000004" as="sourcePoint" />
            <mxPoint x="90" y="99.58000000000004" as="targetPoint" />
            <mxPoint x="10" y="10" as="offset" />
          </mxGeometry>
        </mxCell>
        <mxCell id="TdiOMRewL-0ZkkPGsHOe-37" value="" style="group" vertex="1" connectable="0" parent="TdiOMRewL-0ZkkPGsHOe-30">
          <mxGeometry x="20" y="130" width="210" height="30" as="geometry" />
        </mxCell>
        <mxCell id="TdiOMRewL-0ZkkPGsHOe-35" value="" style="rounded=1;whiteSpace=wrap;html=1;fillColor=#dae8fc;strokeColor=#6c8ebf;labelPosition=right;verticalLabelPosition=middle;align=left;verticalAlign=middle;" vertex="1" parent="TdiOMRewL-0ZkkPGsHOe-37">
          <mxGeometry width="70" height="30" as="geometry" />
        </mxCell>
        <mxCell id="TdiOMRewL-0ZkkPGsHOe-36" value="Communication module" style="text;html=1;align=left;verticalAlign=middle;whiteSpace=wrap;rounded=0;" vertex="1" parent="TdiOMRewL-0ZkkPGsHOe-37">
          <mxGeometry x="80" width="130" height="30" as="geometry" />
        </mxCell>
        <mxCell id="TdiOMRewL-0ZkkPGsHOe-40" value="" style="group" vertex="1" connectable="0" parent="TdiOMRewL-0ZkkPGsHOe-30">
          <mxGeometry x="20" y="190" width="210" height="30" as="geometry" />
        </mxCell>
        <mxCell id="TdiOMRewL-0ZkkPGsHOe-38" value="" style="rounded=0;whiteSpace=wrap;html=1;fillColor=#e1d5e7;strokeColor=#9673a6;" vertex="1" parent="TdiOMRewL-0ZkkPGsHOe-40">
          <mxGeometry width="70" height="30" as="geometry" />
        </mxCell>
        <mxCell id="TdiOMRewL-0ZkkPGsHOe-39" value="IoP module" style="text;html=1;align=left;verticalAlign=middle;whiteSpace=wrap;rounded=0;" vertex="1" parent="TdiOMRewL-0ZkkPGsHOe-40">
          <mxGeometry x="80" width="130" height="30" as="geometry" />
        </mxCell>
        <mxCell id="TdiOMRewL-0ZkkPGsHOe-43" value="" style="group" vertex="1" connectable="0" parent="TdiOMRewL-0ZkkPGsHOe-30">
          <mxGeometry x="20" y="250" width="210" height="30" as="geometry" />
        </mxCell>
        <mxCell id="TdiOMRewL-0ZkkPGsHOe-41" value="" style="rounded=0;whiteSpace=wrap;html=1;shape=process;backgroundOutline=1;" vertex="1" parent="TdiOMRewL-0ZkkPGsHOe-43">
          <mxGeometry width="70" height="30" as="geometry" />
        </mxCell>
        <mxCell id="TdiOMRewL-0ZkkPGsHOe-42" value="Processor module" style="text;html=1;align=left;verticalAlign=middle;whiteSpace=wrap;rounded=0;" vertex="1" parent="TdiOMRewL-0ZkkPGsHOe-43">
          <mxGeometry x="80" width="130" height="30" as="geometry" />
        </mxCell>
      </root>
    </mxGraphModel>
  </diagram>
</mxfile>
